<svg xmlns="http://www.w3.org/2000/svg" viewBox="0 0 800 376"><style>.st0{display:none;} .st1{display:inline;} .st2{fill:#FFFFFF;} .st3{fill:none;stroke:#9882CE;stroke-width:4;stroke-miterlimit:10;} .st4{fill:none;stroke:#404040;stroke-width:4;stroke-linecap:round;stroke-linejoin:round;stroke-miterlimit:10;} .st5{fill:#B3E3FF;stroke:#404040;stroke-width:4;stroke-miterlimit:10;} .st6{fill:#FFFFFF;stroke:#59AFE1;stroke-width:4;stroke-miterlimit:10;} .st7{fill:#FFFFFF;stroke:#404040;stroke-width:4;stroke-miterlimit:10;} .st8{fill:#B18BE8;stroke:#404040;stroke-width:4;stroke-linecap:round;stroke-linejoin:round;stroke-miterlimit:10;} .st9{fill:#404040;} .st10{fill:#CCCCCC;stroke:#404040;stroke-width:4;stroke-miterlimit:10;} .st11{fill:#FFFFFF;stroke:#404040;stroke-width:4;stroke-linecap:round;stroke-linejoin:round;stroke-miterlimit:10;} .st12{fill:#999999;} .st13{fill:#B3E3FF;stroke:#404040;stroke-width:4;stroke-linejoin:round;stroke-miterlimit:10;} .st14{fill:#59AFE1;stroke:#404040;stroke-width:4;stroke-linejoin:round;stroke-miterlimit:10;} .st15{fill:none;stroke:#CCCCCC;stroke-linecap:round;stroke-linejoin:round;stroke-miterlimit:10;} .st16{fill:none;stroke:#404040;stroke-width:4;stroke-miterlimit:10;}</style><g id="advanced_x5F_tips_x5F_rewritinghistory_x5F_2_1_"><path class="st4" d="M553.1 100.4v-23.5m10.9 14.8l-10.9 10.9-10.9-10.9"/><path class="st13" d="M505.1 6h96v50h-96z"/><path class="st9" d="M538.8 37v-8.3l-3.6 8.3h-1.3l-3.6-8.3v8.3h-1.5v-10.6h2l3.7 8.7 3.8-8.7h2v10.6h-1.5zm6.4-4.1l1.9-.3c.4-.1.6-.3.6-.5 0-.7-.5-1.3-1.6-1.3-1 0-1.5.6-1.6 1.5l-1.4-.3c.2-1.4 1.4-2.3 3-2.3 2.2 0 3 1.2 3 2.6v3.6c0 .6.1 1 .1 1.2h-1.4c0-.2-.1-.5-.1-1-.3.5-1 1.2-2.3 1.2-1.5 0-2.4-1-2.4-2.2 0-1.3 1-2 2.2-2.2zm2.5 1v-.3l-2.2.3c-.6.1-1 .4-1 1.1 0 .5.4 1 1.2 1 1.1.1 2-.5 2-2.1zm5 .8c.1.8.7 1.3 1.7 1.3.8 0 1.2-.4 1.2-1 0-.4-.3-.8-.9-.9l-1.2-.3c-1.1-.2-1.8-1-1.8-2 0-1.2 1.2-2.3 2.6-2.3 2 0 2.6 1.3 2.7 1.9l-1.2.5c-.1-.4-.4-1.2-1.5-1.2-.7 0-1.2.5-1.2 1 0 .4.3.8.8.9l1.2.3c1.3.3 2 1.1 2 2.1s-.9 2.2-2.6 2.2c-2 0-2.8-1.3-2.9-2.1l1.1-.4zm8.8-4.9h1.6v1.3h-1.6v3.8c0 .7.3 1 1 1 .2 0 .4 0 .6-.1v1.2c-.1 0-.5.1-1 .1-1.2 0-2-.8-2-2.1v-4h-1.4v-1.3h.4c.8 0 1.1-.5 1.1-1.1v-1.2h1.3v2.4zm10.4 5.2c-.4 1.3-1.6 2.3-3.2 2.3-1.9 0-3.6-1.4-3.6-3.9 0-2.3 1.6-3.8 3.4-3.8 2.2 0 3.5 1.5 3.5 3.8v.4h-5.4c0 1.3 1 2.2 2.2 2.2 1.2 0 1.8-.6 2-1.5l1.1.5zm-1.4-2.3c0-1-.7-1.8-2-1.8-1.2 0-1.9.9-2 1.8h4zm8-1.5h-.6c-1.2 0-2 .6-2 2.2v3.6h-1.4v-7.2h1.4v1.3c.5-1.1 1.4-1.4 2.2-1.4h.5v1.5z"/></g><path class="st16" d="M391.4 185.6c0-22.8-18.5-41.3-41.3-41.3m41.3 41.3c0 22.8 18.5 41.3 41.3 41.3h43.7m-235.2-82.6h290.7"/><path class="st7" d="M317.9 144.3c0-11.7-9.5-21.2-21.2-21.2s-21.2 9.5-21.2 21.2 9.5 21.2 21.2 21.2 21.2-9.5 21.2-21.2zm179.7 0c0-11.7-9.5-21.2-21.2-21.2s-21.2 9.5-21.2 21.2 9.5 21.2 21.2 21.2 21.2-9.5 21.2-21.2zm76.7 0c0-11.7-9.5-21.2-21.2-21.2s-21.2 9.5-21.2 21.2 9.5 21.2 21.2 21.2 21.2-9.5 21.2-21.2zm-333.1 0c0-11.7-9.5-21.2-21.2-21.2s-21.2 9.5-21.2 21.2 9.5 21.2 21.2 21.2 21.2-9.5 21.2-21.2z"/><circle class="st14" cx="476.4" cy="226.9" r="21.2"/><path class="st11" d="M380.4 319h192v50h-192z"/><path class="st4" d="M477.9 271.8v23.5m-10.9-14.8l10.9-10.9 10.8 10.9"/><path class="st9" d="M408.9 348.7l-5.7-8.7v8.7h-1.5v-10.7h2l5.3 8.2v-8.2h1.5v10.6h-1.6zm11.6-3.6c0 2.2-1.5 3.8-3.7 3.8s-3.7-1.6-3.7-3.8c0-2.2 1.5-3.8 3.7-3.8s3.7 1.6 3.7 3.8zm-1.4 0c0-1.7-1.1-2.6-2.2-2.6s-2.2.9-2.2 2.6c0 1.7 1.1 2.6 2.2 2.6s2.2-1 2.2-2.6zm5.4 3.6h-1.4v-7.2h1.4v1c.5-.9 1.4-1.2 2.2-1.2 1.7 0 2.6 1.2 2.6 2.9v4.6h-1.4v-4.3c0-1-.4-1.8-1.7-1.8-1.1 0-1.7.9-1.7 2v4zm7.2-3.7v-1.2h4.1v1.2h-4.1zm13 1.6c-.4 1.3-1.6 2.3-3.2 2.3-1.9 0-3.6-1.4-3.6-3.9 0-2.3 1.6-3.8 3.4-3.8 2.2 0 3.5 1.5 3.5 3.8v.4h-5.4c0 1.3 1 2.2 2.2 2.2 1.2 0 1.8-.6 2-1.5l1.1.5zm-1.4-2.3c0-1-.7-1.8-2-1.8-1.2 0-1.9.9-2 1.8h4zm5.6.7l-2.6-3.5h1.7l1.8 2.5 1.7-2.5h1.7l-2.6 3.5c.4.6 2.2 3.1 2.7 3.7h-1.7l-1.9-2.7-1.8 2.7h-1.7l2.7-3.7zm7.1-7.3c.6 0 1 .4 1 1s-.4 1-1 1-1-.5-1-1 .5-1 1-1zm-.7 11v-7.2h1.4v7.2h-1.4zm5.2-2.4c.1.8.7 1.3 1.7 1.3.8 0 1.2-.4 1.2-1 0-.4-.3-.8-.9-.9l-1.2-.3c-1.1-.2-1.8-1-1.8-2 0-1.2 1.2-2.3 2.6-2.3 2 0 2.6 1.3 2.7 1.9l-1.2.5c-.1-.4-.4-1.2-1.5-1.2-.7 0-1.2.5-1.2 1 0 .4.3.8.8.9l1.2.3c1.3.3 2 1.1 2 2.1s-.9 2.2-2.6 2.2c-2 0-2.8-1.3-2.9-2.1l1.1-.4zm8.8-4.8h1.6v1.3h-1.6v3.8c0 .7.3 1 1 1 .2 0 .4 0 .6-.1v1.2c-.1 0-.5.1-1 .1-1.2 0-2-.8-2-2.1v-4h-1.4v-1.3h.4c.8 0 1.1-.5 1.1-1.1v-1.2h1.3v2.4zm10.4 5.1c-.4 1.3-1.6 2.3-3.2 2.3-1.9 0-3.6-1.4-3.6-3.9 0-2.3 1.6-3.8 3.4-3.8 2.2 0 3.5 1.5 3.5 3.8v.4h-5.4c0 1.3 1 2.2 2.2 2.2 1.2 0 1.8-.6 2-1.5l1.1.5zm-1.4-2.3c0-1-.7-1.8-2-1.8-1.2 0-1.9.9-2 1.8h4zm5.4 4.4h-1.4v-7.2h1.4v1c.5-.9 1.4-1.2 2.2-1.2 1.7 0 2.6 1.2 2.6 2.9v4.6h-1.4v-4.3c0-1-.4-1.8-1.7-1.8-1.1 0-1.7.9-1.7 2v4zm9.7-7.2h1.6v1.3h-1.6v3.8c0 .7.3 1 1 1 .2 0 .4 0 .6-.1v1.2c-.1 0-.5.1-1 .1-1.2 0-2-.8-2-2.1v-4h-1.4v-1.3h.4c.8 0 1.1-.5 1.1-1.1v-1.2h1.3v2.4zm12.3-3.5c2 0 3.2 1.2 3.2 2.9 0 1.1-.7 2-1.6 2.3 1.2.3 1.9 1.4 1.9 2.6 0 1.7-1.3 2.9-3.3 2.9h-3.7v-10.7h3.5zm-.2 4.7c1.2 0 1.9-.7 1.9-1.7s-.7-1.7-1.9-1.7h-1.8v3.4h1.8zm.2 4.7c1.2 0 2-.7 2-1.7s-.6-1.7-1.9-1.7h-2.1v3.4h2zm10.1-4.5h-.6c-1.2 0-2 .6-2 2.2v3.6h-1.4v-7.2h1.4v1.3c.5-1.1 1.4-1.4 2.2-1.4h.5v1.5zm3.9 1.6l1.9-.3c.4-.1.6-.3.6-.5 0-.7-.5-1.3-1.6-1.3-1 0-1.5.6-1.6 1.5l-1.4-.3c.2-1.4 1.4-2.3 3-2.3 2.2 0 3 1.2 3 2.6v3.6c0 .6.1 1 .1 1.2h-1.4c0-.2-.1-.5-.1-1-.3.5-1 1.2-2.3 1.2-1.5 0-2.4-1-2.4-2.2.1-1.3 1-2 2.2-2.2zm2.5 1.1v-.3l-2.2.3c-.6.1-1.1.4-1.1 1.1 0 .5.4 1 1.2 1 1.2 0 2.1-.5 2.1-2.1zm5.8 3.1h-1.4v-7.2h1.4v1c.5-.9 1.4-1.2 2.2-1.2 1.7 0 2.6 1.2 2.6 2.9v4.6h-1.4v-4.3c0-1-.4-1.8-1.7-1.8-1.1 0-1.7.9-1.7 2v4zm8.6-3.6c0 1.6 1 2.5 2.2 2.5 1.3 0 1.8-.9 2-1.5l1.2.5c-.3 1-1.4 2.2-3.3 2.2-2.1 0-3.6-1.6-3.6-3.8 0-2.2 1.6-3.8 3.6-3.8 1.9 0 2.9 1.2 3.2 2.3l-1.3.5c-.2-.7-.7-1.5-1.9-1.5-1 0-2.1.9-2.1 2.6zm9.3 3.6h-1.4v-10.9h1.4v4.5c.5-.8 1.4-1.1 2.2-1.1 1.7 0 2.6 1.2 2.6 2.9v4.6h-1.4v-4.3c0-1-.4-1.8-1.7-1.8-1.1 0-1.6.8-1.7 1.9v4.2z"/></svg>