<?xml version="1.0" encoding="UTF-8" standalone="no"?>
<svg
   xmlns:dc="http://purl.org/dc/elements/1.1/"
   xmlns:cc="http://creativecommons.org/ns#"
   xmlns:rdf="http://www.w3.org/1999/02/22-rdf-syntax-ns#"
   xmlns:svg="http://www.w3.org/2000/svg"
   xmlns="http://www.w3.org/2000/svg"
   xmlns:sodipodi="http://sodipodi.sourceforge.net/DTD/sodipodi-0.dtd"
   xmlns:inkscape="http://www.inkscape.org/namespaces/inkscape"
   viewBox="0 0 800 534"
   version="1.1"
   id="svg60"
   sodipodi:docname="drebase.svg"
   inkscape:version="0.92.2 (5c3e80d, 2017-08-06)">
  <metadata
     id="metadata66">
    <rdf:RDF>
      <cc:Work
         rdf:about="">
        <dc:format>image/svg+xml</dc:format>
        <dc:type
           rdf:resource="http://purl.org/dc/dcmitype/StillImage" />
      </cc:Work>
    </rdf:RDF>
  </metadata>
  <defs
     id="defs64" />
  <sodipodi:namedview
     pagecolor="#ffffff"
     bordercolor="#666666"
     borderopacity="1"
     objecttolerance="10"
     gridtolerance="10"
     guidetolerance="10"
     inkscape:pageopacity="0"
     inkscape:pageshadow="2"
     inkscape:window-width="1676"
     inkscape:window-height="1006"
     id="namedview62"
     showgrid="false"
     inkscape:zoom="1.57"
     inkscape:cx="414.56848"
     inkscape:cy="322.36406"
     inkscape:window-x="1366"
     inkscape:window-y="20"
     inkscape:window-maximized="1"
     inkscape:current-layer="svg60" />
  <style
     id="style2">.st0{display:none;} .st1{display:inline;} .st2{fill:#FFFFFF;} .st3{fill:none;stroke:#9882CE;stroke-width:4;stroke-miterlimit:10;} .st4{fill:#FFFFFF;stroke:#404040;stroke-width:4;stroke-linejoin:round;stroke-miterlimit:10;} .st5{fill:#4ED1A1;stroke:#404040;stroke-width:4;stroke-linecap:round;stroke-linejoin:round;stroke-miterlimit:10;} .st6{fill:#B3E3FF;stroke:#404040;stroke-width:4;stroke-miterlimit:10;} .st7{fill:#FFFFFF;stroke:#6693ED;stroke-width:4;stroke-miterlimit:10;} .st8{fill:#FFFFFF;stroke:#404040;stroke-width:4;stroke-miterlimit:10;} .st9{fill:#404040;} .st10{fill:#404040;stroke:#404040;stroke-width:4;stroke-linejoin:round;stroke-miterlimit:10;} .st11{fill:none;stroke:#404040;stroke-width:4;stroke-linecap:round;stroke-linejoin:round;stroke-miterlimit:10;} .st12{fill:#999999;} .st13{fill:#B18BE8;stroke:#404040;stroke-width:4;stroke-linecap:round;stroke-linejoin:round;stroke-miterlimit:10;} .st14{fill:none;stroke:#404040;stroke-width:4;stroke-miterlimit:10;} .st15{fill:#4ED1A1;stroke:#404040;stroke-width:4;stroke-miterlimit:10;} .st16{fill:#B3E3FF;stroke:#404040;stroke-width:4;stroke-linejoin:round;stroke-miterlimit:10;} .st17{fill:#FFFFFF;stroke:#404040;stroke-width:4;stroke-linecap:round;stroke-linejoin:round;stroke-miterlimit:10;} .st18{fill:none;stroke:#CCCCCC;stroke-width:4;stroke-linecap:round;stroke-linejoin:round;stroke-miterlimit:10;} .st19{fill:#FFFFFF;stroke:#CCCCCC;stroke-width:4;stroke-linecap:round;stroke-linejoin:round;stroke-miterlimit:10;} .st20{fill:#59AFE1;stroke:#404040;stroke-width:4;stroke-linejoin:round;stroke-miterlimit:10;} .st21{fill:none;stroke:#CCCCCC;stroke-linecap:round;stroke-linejoin:round;stroke-miterlimit:10;}</style>
  <path
     class="st9"
     d="M350.8 515.3c2 0 3.2 1.2 3.2 2.9 0 1.1-.7 2-1.6 2.3 1.2.3 1.9 1.4 1.9 2.6 0 1.7-1.3 2.9-3.3 2.9h-3.7v-10.6h3.5zm-.2 4.7c1.2 0 1.9-.7 1.9-1.7s-.7-1.7-1.9-1.7h-1.8v3.4h1.8zm.2 4.7c1.2 0 2-.7 2-1.7s-.6-1.7-1.9-1.7h-2.1v3.4h2zm10.1-4.5h-.6c-1.2 0-2 .6-2 2.2v3.6h-1.4v-7.2h1.4v1.3c.5-1.1 1.4-1.4 2.2-1.4h.5v1.5zm4 1.6l1.9-.3c.4-.1.6-.3.6-.5 0-.7-.5-1.3-1.6-1.3-1 0-1.5.6-1.6 1.5l-1.4-.3c.2-1.4 1.4-2.3 3-2.3 2.2 0 3 1.2 3 2.6v3.6c0 .6.1 1 .1 1.2h-1.4c0-.2-.1-.5-.1-1-.3.5-1 1.2-2.3 1.2-1.5 0-2.4-1-2.4-2.2 0-1.3.9-2 2.2-2.2zm2.5 1.1v-.3l-2.2.3c-.6.1-1.1.4-1.1 1.1 0 .5.4 1 1.2 1 1.2 0 2.1-.6 2.1-2.1zm5.7 3h-1.4v-7.2h1.4v1c.5-.9 1.4-1.2 2.2-1.2 1.7 0 2.6 1.2 2.6 2.9v4.6h-1.4v-4.3c0-1-.4-1.8-1.7-1.8-1.1 0-1.7.9-1.7 2v4zm12.9-1c-.3.7-1.1 1.3-2.2 1.3-2.1 0-3.4-1.7-3.4-3.8 0-2 1.4-3.8 3.4-3.8 1.3 0 2 .6 2.2 1.2v-4.7h1.4v9.5c0 .7.1 1.2.1 1.3h-1.5c0-.2-.1-.5-.1-1zm-2.1 0c1.3 0 2.1-1.1 2.1-2.6s-.8-2.5-2.1-2.5-2.1 1-2.1 2.5.7 2.6 2.1 2.6zm18.5 1l-5.7-8.7v8.7h-1.5v-10.6h2l5.3 8.2v-8.2h1.5v10.6h-1.6zm11.1-2c-.4 1.3-1.6 2.3-3.2 2.3-1.9 0-3.6-1.4-3.6-3.9 0-2.3 1.6-3.8 3.4-3.8 2.2 0 3.5 1.5 3.5 3.8v.4h-5.4c0 1.3 1 2.2 2.2 2.2 1.2 0 1.8-.6 2-1.5l1.1.5zm-1.5-2.3c0-1-.7-1.8-2-1.8-1.2 0-1.9.9-2 1.8h4zm9.5-2.9l1.9 5.4 1.6-5.4h1.5l-2.3 7.2h-1.5l-1.9-5.5-1.9 5.5h-1.5l-2.4-7.2h1.5l1.6 5.4 1.9-5.4h1.5zm11.1 1.9c0-3.6 2.6-5.5 5.3-5.5 2.4 0 4.1 1.3 4.7 3.4l-1.4.5c-.4-1.6-1.6-2.5-3.3-2.5-1.9 0-3.8 1.4-3.8 4.2 0 2.8 1.8 4.2 3.8 4.2 1.8 0 3-1.1 3.4-2.5l1.3.5c-.6 2-2.2 3.4-4.7 3.4-2.8-.1-5.3-2.1-5.3-5.7zm19 1.7c0 2.2-1.5 3.8-3.7 3.8s-3.7-1.6-3.7-3.8c0-2.2 1.5-3.8 3.7-3.8s3.7 1.6 3.7 3.8zm-1.4 0c0-1.7-1.1-2.6-2.2-2.6s-2.2.9-2.2 2.6c0 1.7 1 2.6 2.2 2.6s2.2-.9 2.2-2.6zm4 3.6v-7.2h1.3v1c.4-.8 1.4-1.2 2.2-1.2.9 0 1.8.4 2.2 1.4.6-1 1.5-1.4 2.4-1.4 1.3 0 2.5.9 2.5 2.7v4.7h-1.4v-4.5c0-.9-.5-1.7-1.5-1.7s-1.7.8-1.7 1.8v4.4h-1.4v-4.5c0-.9-.4-1.7-1.5-1.7-1 0-1.7.8-1.7 1.8v4.3h-1.4zm13.6 0v-7.2h1.3v1c.4-.8 1.4-1.2 2.2-1.2.9 0 1.8.4 2.2 1.4.6-1 1.5-1.4 2.4-1.4 1.3 0 2.5.9 2.5 2.7v4.7h-1.4v-4.5c0-.9-.5-1.7-1.5-1.7s-1.7.8-1.7 1.8v4.4h-1.4v-4.5c0-.9-.4-1.7-1.5-1.7-1 0-1.7.8-1.7 1.8v4.3h-1.4zm14.3-10.9c.6 0 1 .4 1 1s-.4 1-1 1-1-.5-1-1c0-.6.4-1 1-1zm-.7 10.9v-7.2h1.4v7.2h-1.4zm6.4-7.2h1.6v1.3h-1.6v3.8c0 .7.3 1 1 1 .2 0 .4 0 .6-.1v1.2c-.1 0-.5.1-1 .1-1.2 0-2-.8-2-2.1v-4h-1.4v-1.3h.4c.8 0 1.1-.5 1.1-1.1v-1.2h1.3v2.4z"
     id="path6" />
  <path
     class="st17"
     d="M315.4 520.4h13m-11.1-4.5l9.2 9.1m0-9.1l-9.2 9.1m4.6-11.1v13"
     id="path8" />
  <path
     class="st18"
     d="M188 309.5h216.1"
     id="path10" />
  <path
     class="st14"
     d="M245.8 268.5c0 22.6-18.4 41-41 41m41-41c0-22.6 18.4-41 41-41h407.5"
     id="path12" />
  <circle
     class="st15"
     cx="330.1"
     cy="227.5"
     r="21"
     id="circle14" />
  <circle
     class="st15"
     cx="426.4"
     cy="227.5"
     r="21"
     id="circle16" />
  <circle
     class="st15"
     cx="522.7"
     cy="227.5"
     r="21"
     id="circle18" />
  <circle
     class="st16"
     cx="619"
     cy="227.5"
     r="21"
     id="circle20" />
  <circle
     class="st16"
     cx="715.3"
     cy="227.5"
     r="21"
     id="circle22" />
  <path
     class="st14"
     d="M34.7 309.5h170.1"
     id="path24" />
  <circle
     class="st8"
     cx="55.7"
     cy="309.5"
     r="21"
     id="circle26" />
  <circle
     class="st8"
     cx="151.7"
     cy="309.5"
     r="21"
     id="circle28" />
  <circle
     class="st19"
     cx="329.1"
     cy="309.5"
     r="21"
     id="circle30" />
  <circle
     class="st19"
     cx="425.1"
     cy="309.5"
     r="21"
     id="circle32" />
  <path
     class="st5"
     d="M472.7 86.5h100v50h-100z"
     id="path34" />
  <path
     class="st9"
     d="M495.9 117.5v-10.6h6.5v1.4h-5v3.4h4.5v1.4h-4.5v4.5h-1.5zm14.6-2.1c-.4 1.3-1.6 2.3-3.2 2.3-1.9 0-3.6-1.4-3.6-3.9 0-2.3 1.6-3.8 3.4-3.8 2.2 0 3.5 1.5 3.5 3.8v.4h-5.4c0 1.3 1 2.2 2.2 2.2 1.2 0 1.8-.6 2-1.5l1.1.5zm-1.4-2.3c0-1-.7-1.8-2-1.8-1.2 0-1.9.9-2 1.8h4zm5.7.3l1.9-.3c.4-.1.6-.3.6-.5 0-.7-.5-1.3-1.6-1.3-1 0-1.5.6-1.6 1.5l-1.4-.3c.2-1.4 1.4-2.3 3-2.3 2.2 0 3 1.2 3 2.6v3.6c0 .6.1 1 .1 1.2h-1.4c0-.2-.1-.5-.1-1-.3.5-1 1.2-2.3 1.2-1.5 0-2.4-1-2.4-2.2 0-1.3 1-2.1 2.2-2.2zm2.5 1v-.3l-2.2.3c-.6.1-1.1.4-1.1 1.1 0 .5.4 1 1.2 1 1.2 0 2.1-.5 2.1-2.1zm6.3-4.1h1.6v1.3h-1.6v3.8c0 .7.3 1 1 1 .2 0 .4 0 .6-.1v1.2c-.1 0-.5.1-1 .1-1.2 0-2-.8-2-2.1v-4h-1.4v-1.3h.4c.8 0 1.1-.5 1.1-1.1v-1.1h1.3v2.3zm6.8 7.4c-1.7 0-2.7-1.3-2.7-2.9v-4.5h1.4v4.3c0 1 .4 1.9 1.6 1.9 1.1 0 1.7-.8 1.7-1.8v-4.4h1.4v5.9c0 .6 0 1.1.1 1.3h-1.4c0-.2-.1-.6-.1-.9-.3.8-1.2 1.1-2 1.1zm10.6-6h-.6c-1.2 0-2 .6-2 2.2v3.6h-1.4v-7.2h1.4v1.3c.5-1.1 1.4-1.4 2.2-1.4h.5v1.5zm8.5 3.7c-.4 1.3-1.6 2.3-3.2 2.3-1.9 0-3.6-1.4-3.6-3.9 0-2.3 1.6-3.8 3.4-3.8 2.2 0 3.5 1.5 3.5 3.8v.4h-5.6c0 1.3 1 2.2 2.2 2.2 1.2 0 1.8-.6 2-1.5l1.3.5zm-1.5-2.3c0-1-.7-1.8-2-1.8-1.2 0-1.9.9-2 1.8h4z"
     id="path36" />
  <path
     class="st11"
     d="M522.7 182.3v-23.5m10.8 14.8l-10.8 10.9-10.9-10.9"
     id="path38" />
  <path
     class="st16"
     d="M665.3 86.5h100v50h-100z"
     id="path40" />
  <path
     class="st9"
     d="M700.6 117.5v-8.3l-3.6 8.3h-1.3l-3.6-8.3v8.3h-1.5v-10.6h2l3.7 8.7 3.8-8.7h2v10.6h-1.5zm6.4-4.1l1.9-.3c.4-.1.6-.3.6-.5 0-.7-.5-1.3-1.6-1.3-1 0-1.5.6-1.6 1.5l-1.4-.3c.2-1.4 1.4-2.3 3-2.3 2.2 0 3 1.2 3 2.6v3.6c0 .6.1 1 .1 1.2h-1.4c0-.2-.1-.5-.1-1-.3.5-1 1.2-2.3 1.2-1.5 0-2.4-1-2.4-2.2 0-1.3 1-2.1 2.2-2.2zm2.5 1v-.3l-2.2.3c-.6.1-1.1.4-1.1 1.1 0 .5.4 1 1.2 1 1.2 0 2.1-.5 2.1-2.1zm5 .8c.1.8.7 1.3 1.7 1.3.8 0 1.2-.5 1.2-1s-.3-.8-.9-.9l-1.2-.3c-1.1-.2-1.8-1-1.8-2 0-1.2 1.2-2.3 2.6-2.3 2 0 2.6 1.3 2.7 1.9l-1.2.5c-.1-.4-.4-1.2-1.5-1.2-.7 0-1.2.5-1.2 1 0 .4.3.8.8.9l1.2.3c1.3.3 2 1.1 2 2.1s-.9 2.2-2.6 2.2c-2 0-2.8-1.3-2.9-2.1l1.1-.4zm8.8-4.9h1.6v1.3h-1.6v3.8c0 .7.3 1 1 1 .2 0 .4 0 .6-.1v1.2c-.1 0-.5.1-1 .1-1.2 0-2-.8-2-2.1v-4h-1.4v-1.3h.4c.8 0 1.1-.5 1.1-1.1v-1.1h1.3v2.3zm10.4 5.1c-.4 1.3-1.6 2.3-3.2 2.3-1.9 0-3.6-1.4-3.6-3.9 0-2.3 1.6-3.8 3.4-3.8 2.2 0 3.5 1.5 3.5 3.8v.4h-5.4c0 1.3 1 2.2 2.2 2.2 1.2 0 1.8-.6 2-1.5l1.1.5zm-1.5-2.3c0-1-.7-1.8-2-1.8-1.2 0-1.9.9-2 1.8h4zm8.1-1.4h-.6c-1.2 0-2 .6-2 2.2v3.6h-1.4v-7.2h1.4v1.3c.5-1.1 1.4-1.4 2.2-1.4h.5v1.5z"
     id="path42" />
  <path
     class="st11"
     d="M715.3 182.3v-23.5m10.8 14.8l-10.8 10.9-10.9-10.9m10.9 98.4v23.5m-10.9-14.8l10.9-10.9 10.8 10.9"
     id="path44" />
  <path
     class="st19"
     d="M375.1 401.4h100v50h-100z"
     id="path46" />
  <path
     class="st9"
     d="M410.5 432.4v-8.3l-3.6 8.3h-1.3l-3.6-8.3v8.3h-1.5v-10.6h2l3.7 8.7 3.8-8.7h2v10.6h-1.5zm6.4-4.1l1.9-.3c.4-.1.6-.3.6-.5 0-.7-.5-1.3-1.6-1.3-1 0-1.5.6-1.6 1.5l-1.4-.3c.2-1.4 1.4-2.3 3-2.3 2.2 0 3 1.2 3 2.6v3.6c0 .6.1 1 .1 1.2h-1.4c0-.2-.1-.5-.1-1-.3.5-1 1.2-2.3 1.2-1.5 0-2.4-1-2.4-2.2 0-1.3.9-2 2.2-2.2zm2.5 1v-.3l-2.2.3c-.6.1-1.1.4-1.1 1.1 0 .5.4 1 1.2 1 1.2.1 2.1-.5 2.1-2.1zm4.9.8c.1.8.7 1.3 1.7 1.3.8 0 1.2-.4 1.2-1 0-.4-.3-.8-.9-.9l-1.2-.3c-1.1-.2-1.8-1-1.8-2 0-1.2 1.2-2.3 2.6-2.3 2 0 2.6 1.3 2.7 1.9l-1.2.5c-.1-.4-.4-1.2-1.5-1.2-.7 0-1.2.5-1.2 1 0 .4.3.8.8.9l1.2.3c1.3.3 2 1.1 2 2.1s-.9 2.2-2.6 2.2c-2 0-2.8-1.3-2.9-2.1l1.1-.4zm8.9-4.9h1.6v1.3h-1.6v3.8c0 .7.3 1 1 1 .2 0 .4 0 .6-.1v1.2c-.1 0-.5.1-1 .1-1.2 0-2-.8-2-2.1v-4h-1.4v-1.3h.4c.8 0 1.1-.5 1.1-1.1v-1.2h1.3v2.4zm10.4 5.2c-.4 1.3-1.6 2.3-3.2 2.3-1.9 0-3.6-1.4-3.6-3.9 0-2.3 1.6-3.8 3.4-3.8 2.2 0 3.5 1.5 3.5 3.8v.5h-5.4c0 1.3 1 2.2 2.2 2.2 1.2 0 1.8-.6 2-1.5l1.1.4zm-1.5-2.3c0-1-.7-1.8-2-1.8-1.2 0-1.9.9-2 1.8h4zm8.1-1.5h-.6c-1.2 0-2 .6-2 2.2v3.6h-1.4v-7.2h1.4v1.3c.5-1.1 1.4-1.4 2.2-1.4h.5v1.5z"
     id="path48" />
  <path
     class="st18"
     d="M425.1 354.9v23.5m-10.8-14.8l10.8-10.9 10.9 10.9"
     id="path50" />
  <path
     class="st11"
     d="M478.5 320.2l-10.8-10.8 10.8-10.9"
     id="path52" />
  <path
     class="st17"
     d="M708.8 227.5h13m-11.1-4.6l9.2 9.2m0-9.2l-9.2 9.2m4.6-11.1v13m-102.8-6.5h13m-11.1-4.6l9.2 9.2m0-9.2l-9.2 9.2m4.6-11.1v13"
     id="path54" />
  <path
     class="st9"
     d="M696.4 316.8h1.8l2.8 4.7 2.8-4.7h1.7l-3.7 6.1v4.5h-1.5v-4.5l-3.9-6.1zm16.5 7c0 2.2-1.5 3.8-3.7 3.8s-3.7-1.6-3.7-3.8c0-2.2 1.5-3.8 3.7-3.8s3.7 1.6 3.7 3.8zm-1.4 0c0-1.7-1.1-2.6-2.2-2.6s-2.2.9-2.2 2.6c0 1.7 1.1 2.6 2.2 2.6s2.2-.9 2.2-2.6zm6.5 3.9c-1.7 0-2.7-1.3-2.7-2.9v-4.5h1.4v4.3c0 1 .4 1.9 1.6 1.9 1.1 0 1.7-.8 1.7-1.8v-4.4h1.4v5.9c0 .6 0 1.1.1 1.3h-1.4c0-.2-.1-.6-.1-.9-.2.7-1.1 1.1-2 1.1zm10.7-6h-.6c-1.2 0-2 .6-2 2.2v3.6h-1.4v-7.2h1.4v1.3c.5-1.1 1.4-1.4 2.2-1.4h.5v1.5zm-39.9 23.8v-7.2h1.3v1c.4-.8 1.4-1.2 2.2-1.2.9 0 1.8.4 2.2 1.4.6-1 1.5-1.4 2.4-1.4 1.3 0 2.5.9 2.5 2.7v4.7h-1.4v-4.5c0-.9-.5-1.6-1.5-1.6s-1.7.8-1.7 1.8v4.4h-1.4v-4.5c0-.9-.4-1.6-1.5-1.6-1 0-1.7.8-1.7 1.8v4.3h-1.4zm15.3-4.2l1.9-.3c.4-.1.6-.3.6-.5 0-.7-.5-1.3-1.6-1.3-1 0-1.5.6-1.6 1.5l-1.4-.3c.2-1.4 1.4-2.3 3-2.3 2.2 0 3 1.2 3 2.6v3.6c0 .6.1 1 .1 1.2h-1.4c0-.2-.1-.5-.1-1-.3.5-1 1.2-2.3 1.2-1.5 0-2.4-1-2.4-2.2 0-1.3 1-2 2.2-2.2zm2.5 1.1v-.4l-2.2.3c-.6.1-1.1.4-1.1 1.1 0 .5.4 1 1.2 1 1.2.1 2.1-.5 2.1-2zm5 .7c.1.8.7 1.3 1.7 1.3.8 0 1.2-.4 1.2-1 0-.4-.3-.8-.9-.9l-1.2-.3c-1.1-.2-1.8-1-1.8-2 0-1.2 1.2-2.3 2.6-2.3 2 0 2.6 1.3 2.7 1.9l-1.2.5c-.1-.4-.4-1.2-1.5-1.2-.7 0-1.2.5-1.2 1 0 .4.3.8.8.9l1.2.3c1.3.3 2 1.1 2 2.1s-.9 2.2-2.6 2.2c-2 0-2.8-1.3-2.9-2.1l1.1-.4zm8.8-4.9h1.6v1.3h-1.6v3.8c0 .7.3 1 1 1 .2 0 .4 0 .6-.1v1.2c-.1 0-.5.1-1 .1-1.2 0-2-.8-2-2.1v-4h-1.4v-1.3h.4c.8 0 1.1-.5 1.1-1.1v-1h1.3v2.2zm10.4 5.2c-.4 1.3-1.6 2.3-3.2 2.3-1.9 0-3.6-1.4-3.6-3.9 0-2.3 1.6-3.8 3.4-3.8 2.2 0 3.5 1.5 3.5 3.8v.4h-5.4c0 1.3 1 2.2 2.2 2.2 1.2 0 1.8-.6 2-1.5l1.1.5zm-1.4-2.3c0-1-.7-1.8-2-1.8-1.2 0-1.9.9-2 1.8h4zm8-1.4h-.6c-1.2 0-2 .6-2 2.2v3.6h-1.4v-7.2h1.4v1.3c.5-1.1 1.4-1.4 2.2-1.4h.5v1.5zm-46.7 23.8v-10.9h1.4v4.7c.3-.6 1.2-1.2 2.4-1.2 2.2 0 3.3 1.7 3.3 3.8 0 2.1-1.2 3.8-3.4 3.8-1.1 0-1.9-.5-2.3-1.2v1h-1.4zm3.5-6.2c-1.2 0-2.1 1-2.1 2.5 0 1.6.9 2.6 2.1 2.6 1.3 0 2.1-1 2.1-2.6s-.8-2.5-2.1-2.5zm10.1.4h-.6c-1.2 0-2 .6-2 2.2v3.6h-1.4v-7.2h1.4v1.3c.5-1.1 1.4-1.4 2.2-1.4h.5v1.5zm4 1.6l1.9-.3c.4-.1.6-.3.6-.5 0-.7-.5-1.3-1.6-1.3-1 0-1.5.6-1.6 1.5l-1.4-.3c.2-1.4 1.4-2.3 3-2.3 2.2 0 3 1.2 3 2.6v3.6c0 .6.1 1 .1 1.2h-1.4c0-.2-.1-.5-.1-1-.3.5-1 1.2-2.3 1.2-1.5 0-2.4-1-2.4-2.2 0-1.3 1-2 2.2-2.2zm2.5 1.1v-.4l-2.2.3c-.6.1-1 .4-1 1.1 0 .5.4 1 1.2 1 1.1.1 2-.5 2-2zm5.8 3.1h-1.4v-7.2h1.4v1c.5-.9 1.4-1.2 2.2-1.2 1.7 0 2.6 1.2 2.6 2.9v4.6h-1.4v-4.3c0-1-.4-1.8-1.7-1.8-1.1 0-1.7.9-1.7 2v4zm8.6-3.7c0 1.6 1 2.5 2.2 2.5 1.3 0 1.8-.9 2-1.5l1.2.5c-.3 1-1.4 2.2-3.3 2.2-2.1 0-3.6-1.6-3.6-3.8 0-2.2 1.6-3.8 3.6-3.8 1.9 0 2.9 1.2 3.2 2.3l-1.3.5c-.2-.7-.7-1.5-1.9-1.5-1.1.1-2.1 1-2.1 2.6zm9.3 3.7h-1.4v-10.9h1.4v4.5c.5-.8 1.4-1.1 2.2-1.1 1.7 0 2.6 1.2 2.6 2.9v4.6h-1.4v-4.3c0-1-.4-1.8-1.7-1.8-1.1 0-1.6.8-1.7 1.9v4.2zm-208.5 39.5v-10.6h6.5v1.4h-5v3.3h4.5v1.4h-4.5v3.3h5v1.4h-6.5zm12.4 0h-1.4l-2.9-7.2h1.6l2.1 5.6 2.1-5.6h1.5l-3 7.2zm11-2c-.4 1.3-1.6 2.3-3.2 2.3-1.9 0-3.6-1.4-3.6-3.9 0-2.3 1.6-3.8 3.4-3.8 2.2 0 3.5 1.5 3.5 3.8v.5h-5.5c0 1.3 1 2.2 2.2 2.2 1.2 0 1.8-.6 2-1.5l1.2.4zm-1.4-2.3c0-1-.7-1.8-2-1.8-1.2 0-1.9.9-2 1.8h4zm8-1.4h-.6c-1.2 0-2 .6-2 2.2v3.6h-1.4v-7.2h1.4v1.3c.5-1.1 1.4-1.4 2.2-1.4h.5v1.5zm2.7 8.8l1.8-3.8-3.1-6.4h1.6l2.2 5 2.2-5h1.5l-4.7 10.2h-1.5zm8.4-3.1v-10.9h1.4v4.7c.3-.6 1.2-1.2 2.4-1.2 2.2 0 3.3 1.7 3.3 3.8 0 2.1-1.2 3.8-3.4 3.8-1.1 0-1.9-.5-2.3-1.2v1h-1.4zm3.5-6.1c-1.2 0-2.1 1-2.1 2.5 0 1.6.9 2.6 2.1 2.6 1.3 0 2.1-1 2.1-2.6s-.8-2.5-2.1-2.5zm12.9 2.5c0 2.2-1.5 3.8-3.7 3.8s-3.7-1.6-3.7-3.8c0-2.2 1.5-3.8 3.7-3.8s3.7 1.6 3.7 3.8zm-1.4 0c0-1.7-1.1-2.6-2.2-2.6s-2.2.9-2.2 2.6c0 1.7 1.1 2.6 2.2 2.6s2.2-.9 2.2-2.6zm9 2.6c-.3.7-1.1 1.3-2.2 1.3-2.1 0-3.4-1.7-3.4-3.8 0-2 1.4-3.8 3.4-3.8 1.3 0 2 .6 2.2 1.2v-4.7h1.4v9.5c0 .7.1 1.2.1 1.3h-1.4c0-.2-.1-.5-.1-1zm-2.1 0c1.3 0 2.1-1.1 2.1-2.6s-.8-2.5-2.1-2.5-2.1 1-2.1 2.5.7 2.6 2.1 2.6zm6.9 4.1l1.8-3.8-3.1-6.4h1.6l2.2 5 2.2-5h1.5l-4.7 10.2h-1.5zm19.1-5.1c-.4 1.3-1.6 2.3-3.2 2.3-1.9 0-3.6-1.4-3.6-3.9 0-2.3 1.6-3.8 3.4-3.8 2.2 0 3.5 1.5 3.5 3.8v.5h-5.4c0 1.3 1 2.2 2.2 2.2 1.2 0 1.8-.6 2-1.5l1.1.4zm-1.4-2.3c0-1-.7-1.8-2-1.8-1.2 0-1.9.9-2 1.8h4zm4 4.3v-10.9h1.4v10.9h-1.4zm5.1-2.3c.1.8.7 1.3 1.7 1.3.8 0 1.2-.4 1.2-1 0-.4-.3-.8-.9-.9l-1.2-.3c-1.1-.2-1.8-1-1.8-2 0-1.2 1.2-2.3 2.6-2.3 2 0 2.6 1.3 2.7 1.9l-1.2.5c-.1-.4-.4-1.2-1.5-1.2-.7 0-1.2.5-1.2 1 0 .4.3.8.8.9l1.2.3c1.3.3 2 1.1 2 2.1s-.9 2.2-2.6 2.2c-2 0-2.8-1.3-2.9-2.1l1.1-.4zm13.2.3c-.4 1.3-1.6 2.3-3.2 2.3-1.9 0-3.6-1.4-3.6-3.9 0-2.3 1.6-3.8 3.4-3.8 2.2 0 3.5 1.5 3.5 3.8v.5h-5.4c0 1.3 1 2.2 2.2 2.2 1.2 0 1.8-.6 2-1.5l1.1.4zm-1.4-2.3c0-1-.7-1.8-2-1.8-1.2 0-1.9.9-2 1.8h4zm3.8-6.4c.6 0 1.1.5 1.1 1.3 0 1.9-1.2 2.6-2.1 2.7v-.7c.7-.2 1.1-.8 1.2-1.5 0 0-.2.1-.3.1-.5 0-.9-.4-.9-1 0-.5.4-.9 1-.9zm3.5 8.4c.1.8.7 1.3 1.7 1.3.8 0 1.2-.4 1.2-1 0-.4-.3-.8-.9-.9l-1.2-.3c-1.1-.2-1.8-1-1.8-2 0-1.2 1.2-2.3 2.6-2.3 2 0 2.6 1.3 2.7 1.9l-1.2.5c-.1-.4-.4-1.2-1.5-1.2-.7 0-1.2.5-1.2 1 0 .4.3.8.8.9l1.2.3c1.3.3 2 1.1 2 2.1s-.9 2.2-2.6 2.2c-2 0-2.8-1.3-2.9-2.1l1.1-.4zm-108 20.3v-7.2h1.3v1c.5-.8 1.4-1.2 2.2-1.2.9 0 1.8.4 2.2 1.4.6-1 1.5-1.4 2.4-1.4 1.3 0 2.5.9 2.5 2.7v4.7h-1.4v-4.5c0-.9-.5-1.6-1.5-1.6s-1.7.8-1.7 1.8v4.4h-1.4v-4.5c0-.9-.4-1.6-1.5-1.6-1 0-1.7.8-1.7 1.8v4.3h-1.4zm15.3-4.1l1.9-.3c.4-.1.6-.3.6-.5 0-.7-.5-1.3-1.6-1.3-1 0-1.5.6-1.6 1.5l-1.4-.3c.2-1.4 1.4-2.3 3-2.3 2.2 0 3 1.2 3 2.6v3.6c0 .6.1 1 .1 1.2h-1.4c0-.2-.1-.5-.1-1-.3.5-1 1.2-2.3 1.2-1.5 0-2.4-1-2.4-2.2.1-1.3 1-2 2.2-2.2zm2.5 1.1v-.3l-2.2.3c-.6.1-1 .4-1 1.1 0 .5.4 1 1.2 1 1.1 0 2-.6 2-2.1zm5 .7c.1.8.7 1.3 1.7 1.3.8 0 1.2-.4 1.2-1 0-.4-.3-.8-.9-.9l-1.2-.3c-1.1-.2-1.8-1-1.8-2 0-1.2 1.2-2.3 2.6-2.3 2 0 2.6 1.3 2.7 1.9l-1.2.5c-.1-.4-.4-1.2-1.5-1.2-.7 0-1.2.5-1.2 1 0 .4.3.8.8.9l1.2.3c1.3.3 2 1.1 2 2.1s-.9 2.2-2.6 2.2c-2 0-2.8-1.3-2.9-2.1l1.1-.4zm8.8-4.9h1.6v1.3h-1.6v3.8c0 .7.3 1 1 1 .2 0 .4 0 .6-.1v1.2c-.1 0-.5.1-1 .1-1.2 0-2-.8-2-2.1v-4h-1.4v-1.3h.4c.8 0 1.1-.5 1.1-1.1v-1.2h1.3v2.4zm10.4 5.2c-.4 1.3-1.6 2.3-3.2 2.3-1.9 0-3.6-1.4-3.6-3.9 0-2.3 1.6-3.8 3.4-3.8 2.2 0 3.5 1.5 3.5 3.8v.5h-5.4c0 1.3 1 2.2 2.2 2.2 1.2 0 1.8-.6 2-1.5l1.1.4zm-1.4-2.3c0-1-.7-1.8-2-1.8-1.2 0-1.9.9-2 1.8h4zm8-1.4h-.6c-1.2 0-2 .6-2 2.2v3.6h-1.4v-7.2h1.4v1.3c.5-1.1 1.4-1.4 2.2-1.4h.5v1.5zm6.8 5.7v-10.9h1.4v4.7c.3-.6 1.2-1.2 2.4-1.2 2.2 0 3.3 1.7 3.3 3.8 0 2.1-1.2 3.8-3.4 3.8-1.1 0-1.9-.5-2.3-1.2v1h-1.4zm3.5-6.1c-1.2 0-2.1 1-2.1 2.5 0 1.6.9 2.6 2.1 2.6 1.3 0 2.1-1 2.1-2.6s-.8-2.5-2.1-2.5zm10.1.4h-.6c-1.2 0-2 .6-2 2.2v3.6h-1.4v-7.2h1.4v1.3c.5-1.1 1.4-1.4 2.2-1.4h.5v1.5zm4 1.6l1.9-.3c.4-.1.6-.3.6-.5 0-.7-.5-1.3-1.6-1.3-1 0-1.5.6-1.6 1.5l-1.4-.3c.2-1.4 1.4-2.3 3-2.3 2.2 0 3 1.2 3 2.6v3.6c0 .6.1 1 .1 1.2h-1.4c0-.2-.1-.5-.1-1-.3.5-1 1.2-2.3 1.2-1.5 0-2.4-1-2.4-2.2 0-1.3 1-2 2.2-2.2zm2.5 1.1v-.3l-2.2.3c-.6.1-1.1.4-1.1 1.1 0 .5.4 1 1.2 1 1.2 0 2.1-.6 2.1-2.1zm5.8 3h-1.4v-7.2h1.4v1c.5-.9 1.4-1.2 2.2-1.2 1.7 0 2.6 1.2 2.6 2.8v4.6h-1.4v-4.3c0-1-.4-1.8-1.7-1.8-1.1 0-1.7.9-1.7 2v4.1zm8.6-3.6c0 1.7 1 2.5 2.2 2.5 1.3 0 1.8-.9 2-1.5l1.2.5c-.3 1-1.4 2.2-3.3 2.2-2.1 0-3.6-1.6-3.6-3.8 0-2.2 1.6-3.8 3.6-3.8 1.9 0 2.9 1.2 3.2 2.3l-1.3.5c-.2-.7-.7-1.5-1.9-1.5-1.1.1-2.1 1-2.1 2.6zm9.2 3.6h-1.4v-10.9h1.4v4.5c.5-.8 1.4-1 2.2-1 1.7 0 2.6 1.2 2.6 2.8v4.6h-1.4v-4.3c0-1-.4-1.8-1.7-1.8-1.1 0-1.6.8-1.7 1.9v4.2z"
     id="path56" />
  <path
     class="st11"
     d="M574.2 371.6c-19.7-37.2-58.7-62.5-103.7-62.5"
     id="path58" />
  <g
     aria-label="rebasing master based on feature"
     style="font-style:normal;font-weight:normal;font-size:40px;line-height:1.25;font-family:sans-serif;letter-spacing:0px;word-spacing:0px;fill:#000000;fill-opacity:1;stroke:none"
     id="text42">
    <path
       d="m 270.86922,18.00073 q -0.20052,-0.107422 -0.45833,-0.164714 -0.25781,-0.05729 -0.55143,-0.05729 -1.05274,0 -1.8405,0.802083 -0.78776,0.794922 -1.04557,2.134114 l -0.80925,4.089193 h -1.3177 l 1.56835,-8.020833 h 1.31771 l -0.25065,1.246094 q 0.52279,-0.694662 1.2461,-1.067058 0.73046,-0.372396 1.55403,-0.372396 0.21485,0 0.42253,0.02865 0.20768,0.02149 0.41536,0.07878 z"
       style="font-style:italic;font-variant:normal;font-weight:normal;font-stretch:normal;font-size:14.66666698px;font-family:sans-serif;-inkscape-font-specification:'sans-serif Italic';fill:#6c6753"
       id="path45" />
    <path
       d="m 277.42912,20.077553 q 0.0215,-0.114584 0.0286,-0.236328 0.0143,-0.121745 0.0143,-0.24349 0,-0.873698 -0.51563,-1.382162 -0.50846,-0.508463 -1.38932,-0.508463 -0.98112,0 -1.73307,0.623047 -0.75196,0.615885 -1.13868,1.754557 z m 1.14583,1.03125 h -6.13021 q -0.043,0.272135 -0.0573,0.429687 -0.0143,0.157552 -0.0143,0.272136 0,0.995442 0.60872,1.539713 0.61589,0.544271 1.73308,0.544271 0.85937,0 1.62565,-0.193359 0.76627,-0.19336 1.42513,-0.565756 l -0.25065,1.303386 q -0.70899,0.286458 -1.4681,0.429687 -0.75196,0.14323 -1.53256,0.14323 -1.66862,0 -2.57096,-0.794922 -0.89518,-0.802084 -0.89518,-2.270183 0,-1.253255 0.44401,-2.327474 0.45117,-1.08138 1.31771,-1.926432 0.55859,-0.529948 1.32487,-0.816406 0.77343,-0.286459 1.63997,-0.286459 1.36068,0 2.16276,0.816407 0.80925,0.816406 0.80925,2.191406 0,0.329427 -0.043,0.708984 -0.043,0.372396 -0.12891,0.802084 z"
       style="font-style:italic;font-variant:normal;font-weight:normal;font-stretch:normal;font-size:14.66666698px;font-family:sans-serif;-inkscape-font-specification:'sans-serif Italic';fill:#6c6753"
       id="path47" />
    <path
       d="m 286.66024,19.905678 q 0,-1.038412 -0.47982,-1.625651 -0.47266,-0.58724 -1.31055,-0.58724 -0.60872,0 -1.14583,0.300781 -0.52995,0.29362 -0.92383,0.859375 -0.41536,0.594401 -0.65885,1.382162 -0.23633,0.780599 -0.23633,1.561198 0,0.988281 0.46549,1.554036 0.47266,0.558594 1.29623,0.558594 0.62305,0 1.15299,-0.286458 0.52995,-0.29362 0.93099,-0.859375 0.40821,-0.58724 0.65886,-1.367839 0.25065,-0.780599 0.25065,-1.489583 z m -4.09636,-1.904948 q 0.48698,-0.658854 1.21745,-1.03125 0.73763,-0.379558 1.53972,-0.379558 1.23177,0 1.95507,0.83073 0.73047,0.830729 0.73047,2.248698 0,1.160156 -0.42968,2.248698 -0.42253,1.088541 -1.21029,1.933593 -0.51563,0.558594 -1.1888,0.859375 -0.67318,0.300782 -1.41081,0.300782 -0.7806,0 -1.35352,-0.358073 -0.57291,-0.358073 -0.93099,-1.067058 l -0.23632,1.217448 h -1.31771 l 2.16992,-11.143229 h 1.31771 z"
       style="font-style:italic;font-variant:normal;font-weight:normal;font-stretch:normal;font-size:14.66666698px;font-family:sans-serif;-inkscape-font-specification:'sans-serif Italic';fill:#6c6753"
       id="path49" />
    <path
       d="m 296.58602,20.227943 -0.89518,4.576172 h -1.31771 l 0.24349,-1.217448 q -0.58008,0.716146 -1.32487,1.074219 -0.73763,0.350912 -1.64714,0.350912 -1.02408,0 -1.68294,-0.623047 -0.65169,-0.630209 -0.65169,-1.611328 0,-1.403646 1.11719,-2.220053 1.12435,-0.816406 3.09375,-0.816406 h 1.83333 l 0.0716,-0.350911 q 0.0143,-0.05729 0.0215,-0.121745 0.007,-0.07162 0.007,-0.214844 0,-0.63737 -0.52279,-0.988281 -0.51562,-0.358073 -1.45377,-0.358073 -0.64453,0 -1.32487,0.164713 -0.67318,0.164714 -1.38933,0.494141 l 0.22917,-1.217448 q 0.74479,-0.279297 1.45378,-0.415364 0.71614,-0.14323 1.38216,-0.14323 1.41797,0 2.1556,0.615886 0.74479,0.615885 0.74479,1.790364 0,0.236329 -0.0358,0.558594 -0.0358,0.315104 -0.10742,0.673177 z m -1.42513,0.544271 h -1.31771 q -1.61849,0 -2.39909,0.436849 -0.77343,0.429688 -0.77343,1.339193 0,0.630208 0.39388,0.988281 0.40104,0.358073 1.10286,0.358073 1.07422,0 1.8763,-0.766276 0.80209,-0.773438 1.0599,-2.0625 z"
       style="font-style:italic;font-variant:normal;font-weight:normal;font-stretch:normal;font-size:14.66666698px;font-family:sans-serif;-inkscape-font-specification:'sans-serif Italic';fill:#6c6753"
       id="path51" />
    <path
       d="m 305.03654,17.01961 -0.25065,1.246094 q -0.52279,-0.286459 -1.10286,-0.429688 -0.58008,-0.143229 -1.19597,-0.143229 -1.03841,0 -1.63997,0.358073 -0.5944,0.350911 -0.5944,0.959635 0,0.708985 1.38932,1.088542 0.10742,0.02865 0.15755,0.04297 l 0.42253,0.128906 q 1.31771,0.365234 1.75456,0.766276 0.44401,0.401042 0.44401,1.095703 0,1.27474 -1.01693,2.076823 -1.00977,0.802084 -2.64974,0.802084 -0.63737,0 -1.33919,-0.121745 -0.70183,-0.121745 -1.54688,-0.379558 l 0.25781,-1.360677 q 0.72331,0.372396 1.42514,0.565756 0.70182,0.193359 1.34635,0.193359 0.9668,0 1.56836,-0.415365 0.60872,-0.415364 0.60872,-1.052734 0,-0.6875 -1.58984,-1.110026 l -0.13607,-0.03581 -0.45117,-0.114584 q -1.0026,-0.264974 -1.4681,-0.694661 -0.46549,-0.436849 -0.46549,-1.110026 0,-1.281901 0.95963,-2.033854 0.9668,-0.751954 2.62109,-0.751954 0.6517,0 1.26758,0.107422 0.62305,0.107422 1.22461,0.322266 z"
       style="font-style:italic;font-variant:normal;font-weight:normal;font-stretch:normal;font-size:14.66666698px;font-family:sans-serif;-inkscape-font-specification:'sans-serif Italic';fill:#6c6753"
       id="path53" />
    <path
       d="m 308.03719,13.660886 h 1.31771 l -0.32226,1.66862 h -1.31771 z m -0.60156,3.122396 h 1.31771 l -1.56836,8.020833 h -1.31771 z"
       style="font-style:italic;font-variant:normal;font-weight:normal;font-stretch:normal;font-size:14.66666698px;font-family:sans-serif;-inkscape-font-specification:'sans-serif Italic';fill:#6c6753"
       id="path55" />
    <path
       d="m 317.59058,19.962969 -0.93815,4.841146 h -1.32487 l 0.93815,-4.791015 q 0.0644,-0.336589 0.10026,-0.594401 0.0358,-0.257813 0.0358,-0.408204 0,-0.601562 -0.37956,-0.938151 -0.37956,-0.336588 -1.0599,-0.336588 -1.05989,0 -1.82617,0.708984 -0.76628,0.701823 -1.0026,1.91211 l -0.88086,4.447265 h -1.31771 l 1.55403,-8.020833 h 1.31771 l -0.26497,1.260416 q 0.55143,-0.694661 1.32487,-1.074218 0.77344,-0.379558 1.62565,-0.379558 1.0599,0 1.63997,0.572917 0.58724,0.572917 0.58724,1.611328 0,0.257813 -0.0358,0.551433 -0.0286,0.293619 -0.0931,0.637369 z"
       style="font-style:italic;font-variant:normal;font-weight:normal;font-stretch:normal;font-size:14.66666698px;font-family:sans-serif;-inkscape-font-specification:'sans-serif Italic';fill:#6c6753"
       id="path57" />
    <path
       d="m 327.47339,16.783282 -1.36784,7.025391 q -0.39388,2.041015 -1.51107,3.043619 -1.11002,1.002605 -2.99349,1.002605 -0.69466,0 -1.28906,-0.107422 -0.5944,-0.100261 -1.11003,-0.315104 l 0.24349,-1.281902 q 0.48698,0.315105 1.03125,0.465495 0.54427,0.150391 1.16016,0.150391 1.25326,0 2.05534,-0.6875 0.80924,-0.680339 1.06706,-1.96224 l 0.11458,-0.601562 q -0.55143,0.630208 -1.2819,0.959635 -0.73047,0.329427 -1.57552,0.329427 -1.21745,0 -1.91927,-0.802083 -0.69466,-0.809245 -0.69466,-2.220052 0,-1.110026 0.42252,-2.169922 0.42253,-1.067057 1.1888,-1.890625 0.50847,-0.544271 1.18164,-0.837891 0.68034,-0.29362 1.41797,-0.29362 0.80925,0 1.41081,0.379558 0.60156,0.372396 0.89518,1.059896 l 0.22917,-1.246094 z m -1.98373,2.943359 q 0,-0.973958 -0.45833,-1.503906 -0.45833,-0.529948 -1.30338,-0.529948 -0.52279,0 -0.99545,0.207682 -0.47265,0.207683 -0.80924,0.580078 -0.54427,0.615886 -0.85222,1.453777 -0.30078,0.830729 -0.30078,1.71875 0,0.988281 0.45834,1.518229 0.46549,0.529948 1.33203,0.529948 1.25325,0 2.09114,-1.131511 0.83789,-1.138672 0.83789,-2.843099 z"
       style="font-style:italic;font-variant:normal;font-weight:normal;font-stretch:normal;font-size:14.66666698px;font-family:sans-serif;-inkscape-font-specification:'sans-serif Italic';fill:#6c6753"
       id="path59" />
    <path
       d="m 345.87834,19.962969 -0.93815,4.841146 h -1.31771 l 0.92383,-4.798177 q 0.0573,-0.307943 0.0859,-0.529948 0.0286,-0.222005 0.0286,-0.379557 0,-0.644531 -0.35807,-1.002604 -0.35807,-0.358073 -1.0026,-0.358073 -0.95964,0 -1.71159,0.723307 -0.75195,0.716146 -0.97396,1.869141 l -0.88086,4.475911 h -1.31771 l 0.93815,-4.798177 q 0.0573,-0.264974 0.0859,-0.486979 0.0287,-0.229167 0.0287,-0.408203 0,-0.651693 -0.35808,-1.009766 -0.35807,-0.365234 -0.98828,-0.365234 -0.97396,0 -1.72591,0.723307 -0.75195,0.716146 -0.97396,1.869141 l -0.88086,4.475911 h -1.31771 l 1.56836,-8.020833 h 1.31771 l -0.25065,1.246094 q 0.53711,-0.701823 1.25326,-1.067058 0.7233,-0.372396 1.54687,-0.372396 0.8737,0 1.43229,0.458334 0.56576,0.458333 0.68034,1.274739 0.60156,-0.845052 1.38933,-1.289062 0.79492,-0.444011 1.67578,-0.444011 1.03125,0 1.58984,0.594401 0.56576,0.594402 0.56576,1.682943 0,0.236328 -0.0287,0.522787 -0.0286,0.279297 -0.0859,0.572916 z"
       style="font-style:italic;font-variant:normal;font-weight:normal;font-stretch:normal;font-size:14.66666698px;font-family:sans-serif;-inkscape-font-specification:'sans-serif Italic';fill:#6c6753"
       id="path61" />
    <path
       d="m 354.88029,20.227943 -0.89518,4.576172 h -1.31771 l 0.24349,-1.217448 q -0.58008,0.716146 -1.32487,1.074219 -0.73763,0.350912 -1.64714,0.350912 -1.02409,0 -1.68294,-0.623047 -0.65169,-0.630209 -0.65169,-1.611328 0,-1.403646 1.11719,-2.220053 1.12434,-0.816406 3.09375,-0.816406 h 1.83333 l 0.0716,-0.350911 q 0.0143,-0.05729 0.0215,-0.121745 0.007,-0.07162 0.007,-0.214844 0,-0.63737 -0.52279,-0.988281 -0.51562,-0.358073 -1.45377,-0.358073 -0.64453,0 -1.32487,0.164713 -0.67318,0.164714 -1.38933,0.494141 l 0.22917,-1.217448 q 0.74479,-0.279297 1.45378,-0.415364 0.71614,-0.14323 1.38216,-0.14323 1.41797,0 2.1556,0.615886 0.74479,0.615885 0.74479,1.790364 0,0.236329 -0.0358,0.558594 -0.0358,0.315104 -0.10742,0.673177 z m -1.42513,0.544271 h -1.31771 q -1.61849,0 -2.39909,0.436849 -0.77343,0.429688 -0.77343,1.339193 0,0.630208 0.39388,0.988281 0.40104,0.358073 1.10286,0.358073 1.07422,0 1.8763,-0.766276 0.80209,-0.773438 1.0599,-2.0625 z"
       style="font-style:italic;font-variant:normal;font-weight:normal;font-stretch:normal;font-size:14.66666698px;font-family:sans-serif;-inkscape-font-specification:'sans-serif Italic';fill:#6c6753"
       id="path63" />
    <path
       d="m 363.33082,17.01961 -0.25066,1.246094 q -0.52278,-0.286459 -1.10286,-0.429688 -0.58008,-0.143229 -1.19596,-0.143229 -1.03841,0 -1.63998,0.358073 -0.5944,0.350911 -0.5944,0.959635 0,0.708985 1.38932,1.088542 0.10743,0.02865 0.15756,0.04297 l 0.42252,0.128906 q 1.31771,0.365234 1.75456,0.766276 0.44401,0.401042 0.44401,1.095703 0,1.27474 -1.01693,2.076823 -1.00976,0.802084 -2.64974,0.802084 -0.63737,0 -1.33919,-0.121745 -0.70182,-0.121745 -1.54687,-0.379558 l 0.25781,-1.360677 q 0.72331,0.372396 1.42513,0.565756 0.70182,0.193359 1.34635,0.193359 0.9668,0 1.56836,-0.415365 0.60873,-0.415364 0.60873,-1.052734 0,-0.6875 -1.58985,-1.110026 l -0.13607,-0.03581 -0.45117,-0.114584 q -1.0026,-0.264974 -1.4681,-0.694661 -0.46549,-0.436849 -0.46549,-1.110026 0,-1.281901 0.95963,-2.033854 0.9668,-0.751954 2.6211,-0.751954 0.65169,0 1.26758,0.107422 0.62304,0.107422 1.22461,0.322266 z"
       style="font-style:italic;font-variant:normal;font-weight:normal;font-stretch:normal;font-size:14.66666698px;font-family:sans-serif;-inkscape-font-specification:'sans-serif Italic';fill:#6c6753"
       id="path65" />
    <path
       d="m 369.84774,16.783282 -0.20052,1.024088 h -2.62825 l -0.85222,4.354167 q -0.043,0.24349 -0.0644,0.408203 -0.0215,0.164714 -0.0215,0.257813 0,0.458333 0.27213,0.666015 0.2793,0.207683 0.88802,0.207683 h 1.33203 l -0.222,1.102864 h -1.26042 q -1.17448,0 -1.75456,-0.458333 -0.57291,-0.458333 -0.57291,-1.389323 0,-0.164714 0.0215,-0.358073 0.0215,-0.200521 0.0645,-0.436849 l 0.85222,-4.354167 h -1.11719 l 0.20768,-1.024088 h 1.09571 l 0.44401,-2.277344 h 1.31771 l -0.43685,2.277344 z"
       style="font-style:italic;font-variant:normal;font-weight:normal;font-stretch:normal;font-size:14.66666698px;font-family:sans-serif;-inkscape-font-specification:'sans-serif Italic';fill:#6c6753"
       id="path67" />
    <path
       d="m 376.45777,20.077553 q 0.0215,-0.114584 0.0286,-0.236328 0.0143,-0.121745 0.0143,-0.24349 0,-0.873698 -0.51563,-1.382162 -0.50846,-0.508463 -1.38932,-0.508463 -0.98112,0 -1.73307,0.623047 -0.75196,0.615885 -1.13868,1.754557 z m 1.14583,1.03125 h -6.13021 q -0.043,0.272135 -0.0573,0.429687 -0.0143,0.157552 -0.0143,0.272136 0,0.995442 0.60872,1.539713 0.61589,0.544271 1.73308,0.544271 0.85937,0 1.62565,-0.193359 0.76627,-0.19336 1.42513,-0.565756 l -0.25065,1.303386 q -0.70899,0.286458 -1.4681,0.429687 -0.75196,0.14323 -1.53255,0.14323 -1.66862,0 -2.57097,-0.794922 -0.89518,-0.802084 -0.89518,-2.270183 0,-1.253255 0.44401,-2.327474 0.45117,-1.08138 1.31771,-1.926432 0.55859,-0.529948 1.32487,-0.816406 0.77344,-0.286459 1.63997,-0.286459 1.36068,0 2.16276,0.816407 0.80925,0.816406 0.80925,2.191406 0,0.329427 -0.043,0.708984 -0.043,0.372396 -0.12891,0.802084 z"
       style="font-style:italic;font-variant:normal;font-weight:normal;font-stretch:normal;font-size:14.66666698px;font-family:sans-serif;-inkscape-font-specification:'sans-serif Italic';fill:#6c6753"
       id="path69" />
    <path
       d="m 384.96558,18.00073 q -0.20052,-0.107422 -0.45833,-0.164714 -0.25781,-0.05729 -0.55143,-0.05729 -1.05274,0 -1.8405,0.802083 -0.78776,0.794922 -1.04557,2.134114 l -0.80925,4.089193 h -1.31771 l 1.56836,-8.020833 h 1.31771 l -0.25065,1.246094 q 0.52279,-0.694662 1.2461,-1.067058 0.73046,-0.372396 1.55403,-0.372396 0.21485,0 0.42253,0.02865 0.20768,0.02149 0.41536,0.07878 z"
       style="font-style:italic;font-variant:normal;font-weight:normal;font-stretch:normal;font-size:14.66666698px;font-family:sans-serif;-inkscape-font-specification:'sans-serif Italic';fill:#6c6753"
       id="path71" />
    <path
       d="m 396.40243,19.905678 q 0,-1.038412 -0.47982,-1.625651 -0.47266,-0.58724 -1.31055,-0.58724 -0.60872,0 -1.14583,0.300781 -0.52995,0.29362 -0.92383,0.859375 -0.41536,0.594401 -0.65885,1.382162 -0.23633,0.780599 -0.23633,1.561198 0,0.988281 0.46549,1.554036 0.47266,0.558594 1.29623,0.558594 0.62305,0 1.15299,-0.286458 0.52995,-0.29362 0.93099,-0.859375 0.40821,-0.58724 0.65886,-1.367839 0.25065,-0.780599 0.25065,-1.489583 z m -4.09636,-1.904948 q 0.48698,-0.658854 1.21745,-1.03125 0.73763,-0.379558 1.53972,-0.379558 1.23177,0 1.95507,0.83073 0.73047,0.830729 0.73047,2.248698 0,1.160156 -0.42969,2.248698 -0.42252,1.088541 -1.21028,1.933593 -0.51563,0.558594 -1.1888,0.859375 -0.67318,0.300782 -1.41081,0.300782 -0.7806,0 -1.35352,-0.358073 -0.57291,-0.358073 -0.93099,-1.067058 l -0.23632,1.217448 h -1.31771 l 2.16992,-11.143229 h 1.31771 z"
       style="font-style:italic;font-variant:normal;font-weight:normal;font-stretch:normal;font-size:14.66666698px;font-family:sans-serif;-inkscape-font-specification:'sans-serif Italic';fill:#6c6753"
       id="path73" />
    <path
       d="m 406.32821,20.227943 -0.89518,4.576172 h -1.31771 l 0.24349,-1.217448 q -0.58008,0.716146 -1.32487,1.074219 -0.73763,0.350912 -1.64713,0.350912 -1.02409,0 -1.68295,-0.623047 -0.65169,-0.630209 -0.65169,-1.611328 0,-1.403646 1.11719,-2.220053 1.12435,-0.816406 3.09375,-0.816406 h 1.83333 l 0.0716,-0.350911 q 0.0143,-0.05729 0.0215,-0.121745 0.007,-0.07162 0.007,-0.214844 0,-0.63737 -0.52279,-0.988281 -0.51562,-0.358073 -1.45377,-0.358073 -0.64453,0 -1.32487,0.164713 -0.67318,0.164714 -1.38932,0.494141 l 0.22916,-1.217448 q 0.74479,-0.279297 1.45378,-0.415364 0.71614,-0.14323 1.38216,-0.14323 1.41797,0 2.1556,0.615886 0.74479,0.615885 0.74479,1.790364 0,0.236329 -0.0358,0.558594 -0.0358,0.315104 -0.10742,0.673177 z m -1.42513,0.544271 h -1.31771 q -1.61849,0 -2.39909,0.436849 -0.77343,0.429688 -0.77343,1.339193 0,0.630208 0.39388,0.988281 0.40104,0.358073 1.10286,0.358073 1.07422,0 1.8763,-0.766276 0.80209,-0.773438 1.0599,-2.0625 z"
       style="font-style:italic;font-variant:normal;font-weight:normal;font-stretch:normal;font-size:14.66666698px;font-family:sans-serif;-inkscape-font-specification:'sans-serif Italic';fill:#6c6753"
       id="path75" />
    <path
       d="m 414.77874,17.01961 -0.25065,1.246094 q -0.52279,-0.286459 -1.10287,-0.429688 -0.58008,-0.143229 -1.19596,-0.143229 -1.03841,0 -1.63998,0.358073 -0.5944,0.350911 -0.5944,0.959635 0,0.708985 1.38933,1.088542 0.10742,0.02865 0.15755,0.04297 l 0.42252,0.128906 q 1.31771,0.365234 1.75456,0.766276 0.44401,0.401042 0.44401,1.095703 0,1.27474 -1.01692,2.076823 -1.00977,0.802084 -2.64974,0.802084 -0.63737,0 -1.3392,-0.121745 -0.70182,-0.121745 -1.54687,-0.379558 l 0.25781,-1.360677 q 0.72331,0.372396 1.42513,0.565756 0.70182,0.193359 1.34635,0.193359 0.9668,0 1.56836,-0.415365 0.60873,-0.415364 0.60873,-1.052734 0,-0.6875 -1.58985,-1.110026 l -0.13606,-0.03581 -0.45118,-0.114584 q -1.0026,-0.264974 -1.46809,-0.694661 -0.4655,-0.436849 -0.4655,-1.110026 0,-1.281901 0.95964,-2.033854 0.96679,-0.751954 2.62109,-0.751954 0.65169,0 1.26758,0.107422 0.62305,0.107422 1.22461,0.322266 z"
       style="font-style:italic;font-variant:normal;font-weight:normal;font-stretch:normal;font-size:14.66666698px;font-family:sans-serif;-inkscape-font-specification:'sans-serif Italic';fill:#6c6753"
       id="path77" />
    <path
       d="m 422.14788,20.077553 q 0.0215,-0.114584 0.0286,-0.236328 0.0143,-0.121745 0.0143,-0.24349 0,-0.873698 -0.51563,-1.382162 -0.50846,-0.508463 -1.38932,-0.508463 -0.98112,0 -1.73307,0.623047 -0.75196,0.615885 -1.13868,1.754557 z m 1.14583,1.03125 h -6.13021 q -0.043,0.272135 -0.0573,0.429687 -0.0143,0.157552 -0.0143,0.272136 0,0.995442 0.60872,1.539713 0.61589,0.544271 1.73308,0.544271 0.85937,0 1.62565,-0.193359 0.76627,-0.19336 1.42513,-0.565756 l -0.25065,1.303386 q -0.70899,0.286458 -1.4681,0.429687 -0.75196,0.14323 -1.53256,0.14323 -1.66862,0 -2.57096,-0.794922 -0.89518,-0.802084 -0.89518,-2.270183 0,-1.253255 0.44401,-2.327474 0.45117,-1.08138 1.31771,-1.926432 0.55859,-0.529948 1.32487,-0.816406 0.77343,-0.286459 1.63997,-0.286459 1.36068,0 2.16276,0.816407 0.80925,0.816406 0.80925,2.191406 0,0.329427 -0.043,0.708984 -0.043,0.372396 -0.12891,0.802084 z"
       style="font-style:italic;font-variant:normal;font-weight:normal;font-stretch:normal;font-size:14.66666698px;font-family:sans-serif;-inkscape-font-specification:'sans-serif Italic';fill:#6c6753"
       id="path79" />
    <path
       d="m 430.24749,23.60099 q -0.52995,0.694662 -1.25326,1.052735 -0.72331,0.358073 -1.60416,0.358073 -1.20313,0 -1.90495,-0.816407 -0.69466,-0.823567 -0.69466,-2.248698 0,-1.188802 0.42252,-2.263021 0.42253,-1.08138 1.22461,-1.933593 0.52995,-0.565756 1.19597,-0.859375 0.66601,-0.300782 1.39648,-0.300782 0.77344,0 1.36068,0.372396 0.5944,0.372396 0.91666,1.067058 l 0.85938,-4.36849 h 1.32487 l -2.16992,11.143229 h -1.32487 z m -4.0892,-1.890625 q 0,1.038412 0.4655,1.61849 0.47266,0.580078 1.30338,0.580078 0.61589,0 1.13868,-0.29362 0.52994,-0.300781 0.93099,-0.880859 0.42252,-0.601563 0.66601,-1.389323 0.24349,-0.787761 0.24349,-1.554037 0,-0.995442 -0.47265,-1.554036 -0.4655,-0.558594 -1.28907,-0.558594 -0.62304,0 -1.16015,0.29362 -0.53711,0.29362 -0.91667,0.845052 -0.41536,0.594401 -0.66602,1.382161 -0.24349,0.787761 -0.24349,1.511068 z"
       style="font-style:italic;font-variant:normal;font-weight:normal;font-stretch:normal;font-size:14.66666698px;font-family:sans-serif;-inkscape-font-specification:'sans-serif Italic';fill:#6c6753"
       id="path81" />
    <path
       d="m 441.82039,25.011798 q -1.4108,0 -2.23437,-0.866537 -0.81641,-0.873698 -0.81641,-2.377604 0,-0.873698 0.2793,-1.776042 0.28646,-0.909505 0.73763,-1.52539 0.70898,-0.959636 1.58268,-1.417969 0.8737,-0.458334 1.97656,-0.458334 1.36784,0 2.20573,0.852214 0.84506,0.852214 0.84506,2.227214 0,0.952474 -0.2793,1.897786 -0.2793,0.945313 -0.73047,1.568359 -0.70182,0.959636 -1.57552,1.417969 -0.8737,0.458334 -1.99089,0.458334 z m -1.68294,-3.28711 q 0,1.088542 0.45117,1.632813 0.45834,0.537109 1.38216,0.537109 1.32487,0 2.19141,-1.152995 0.8737,-1.160156 0.8737,-2.936198 0,-1.038411 -0.4655,-1.568359 -0.46549,-0.529948 -1.36783,-0.529948 -0.7448,0 -1.32487,0.350911 -0.58008,0.34375 -1.03842,1.052735 -0.33658,0.529948 -0.52278,1.210286 -0.17904,0.680339 -0.17904,1.403646 z"
       style="font-style:italic;font-variant:normal;font-weight:normal;font-stretch:normal;font-size:14.66666698px;font-family:sans-serif;-inkscape-font-specification:'sans-serif Italic';fill:#6c6753"
       id="path83" />
    <path
       d="m 455.23382,19.962969 -0.93816,4.841146 h -1.32487 l 0.93816,-4.791015 q 0.0645,-0.336589 0.10026,-0.594401 0.0358,-0.257813 0.0358,-0.408204 0,-0.601562 -0.37955,-0.938151 -0.37956,-0.336588 -1.0599,-0.336588 -1.0599,0 -1.82617,0.708984 -0.76628,0.701823 -1.00261,1.91211 l -0.88086,4.447265 h -1.3177 l 1.55403,-8.020833 h 1.31771 l -0.26497,1.260416 q 0.55143,-0.694661 1.32487,-1.074218 0.77343,-0.379558 1.62565,-0.379558 1.05989,0 1.63997,0.572917 0.58724,0.572917 0.58724,1.611328 0,0.257813 -0.0358,0.551433 -0.0286,0.293619 -0.0931,0.637369 z"
       style="font-style:italic;font-variant:normal;font-weight:normal;font-stretch:normal;font-size:14.66666698px;font-family:sans-serif;-inkscape-font-specification:'sans-serif Italic';fill:#6c6753"
       id="path85" />
    <path
       d="m 468.05282,13.660886 -0.20769,1.095703 h -1.26041 q -0.71615,0 -1.04558,0.286458 -0.32226,0.279297 -0.47981,1.03125 l -0.14323,0.708985 h 2.16992 l -0.19336,1.024088 h -2.16992 l -1.36068,6.996745 h -1.32487 l 1.36784,-6.996745 h -1.26042 l 0.1862,-1.024088 h 1.26042 l 0.10742,-0.558594 q 0.27213,-1.417969 0.95247,-1.990885 0.6875,-0.572917 2.1556,-0.572917 z"
       style="font-style:italic;font-variant:normal;font-weight:normal;font-stretch:normal;font-size:14.66666698px;font-family:sans-serif;-inkscape-font-specification:'sans-serif Italic';fill:#6c6753"
       id="path87" />
    <path
       d="m 473.25203,20.077553 q 0.0215,-0.114584 0.0287,-0.236328 0.0143,-0.121745 0.0143,-0.24349 0,-0.873698 -0.51562,-1.382162 -0.50847,-0.508463 -1.38932,-0.508463 -0.98112,0 -1.73308,0.623047 -0.75195,0.615885 -1.13867,1.754557 z m 1.14584,1.03125 h -6.13021 q -0.043,0.272135 -0.0573,0.429687 -0.0143,0.157552 -0.0143,0.272136 0,0.995442 0.60873,1.539713 0.61588,0.544271 1.73307,0.544271 0.85938,0 1.62565,-0.193359 0.76628,-0.19336 1.42513,-0.565756 l -0.25065,1.303386 q -0.70898,0.286458 -1.4681,0.429687 -0.75195,0.14323 -1.53255,0.14323 -1.66862,0 -2.57096,-0.794922 -0.89518,-0.802084 -0.89518,-2.270183 0,-1.253255 0.44401,-2.327474 0.45117,-1.08138 1.3177,-1.926432 0.5586,-0.529948 1.32487,-0.816406 0.77344,-0.286459 1.63998,-0.286459 1.36067,0 2.16276,0.816407 0.80924,0.816406 0.80924,2.191406 0,0.329427 -0.043,0.708984 -0.043,0.372396 -0.1289,0.802084 z"
       style="font-style:italic;font-variant:normal;font-weight:normal;font-stretch:normal;font-size:14.66666698px;font-family:sans-serif;-inkscape-font-specification:'sans-serif Italic';fill:#6c6753"
       id="path89" />
    <path
       d="m 483.09904,20.227943 -0.89518,4.576172 h -1.31771 l 0.24349,-1.217448 q -0.58008,0.716146 -1.32487,1.074219 -0.73763,0.350912 -1.64714,0.350912 -1.02409,0 -1.68294,-0.623047 -0.65169,-0.630209 -0.65169,-1.611328 0,-1.403646 1.11719,-2.220053 1.12434,-0.816406 3.09375,-0.816406 h 1.83333 l 0.0716,-0.350911 q 0.0143,-0.05729 0.0215,-0.121745 0.007,-0.07162 0.007,-0.214844 0,-0.63737 -0.52279,-0.988281 -0.51562,-0.358073 -1.45377,-0.358073 -0.64453,0 -1.32487,0.164713 -0.67318,0.164714 -1.38933,0.494141 l 0.22917,-1.217448 q 0.74479,-0.279297 1.45378,-0.415364 0.71614,-0.14323 1.38216,-0.14323 1.41797,0 2.1556,0.615886 0.74479,0.615885 0.74479,1.790364 0,0.236329 -0.0358,0.558594 -0.0358,0.315104 -0.10742,0.673177 z m -1.42513,0.544271 h -1.31771 q -1.61849,0 -2.39909,0.436849 -0.77343,0.429688 -0.77343,1.339193 0,0.630208 0.39388,0.988281 0.40104,0.358073 1.10286,0.358073 1.07422,0 1.8763,-0.766276 0.80209,-0.773438 1.0599,-2.0625 z"
       style="font-style:italic;font-variant:normal;font-weight:normal;font-stretch:normal;font-size:14.66666698px;font-family:sans-serif;-inkscape-font-specification:'sans-serif Italic';fill:#6c6753"
       id="path91" />
    <path
       d="m 490.41806,16.783282 -0.20053,1.024088 h -2.62825 l -0.85221,4.354167 q -0.043,0.24349 -0.0645,0.408203 -0.0215,0.164714 -0.0215,0.257813 0,0.458333 0.27213,0.666015 0.2793,0.207683 0.88802,0.207683 h 1.33204 l -0.22201,1.102864 h -1.26042 q -1.17448,0 -1.75455,-0.458333 -0.57292,-0.458333 -0.57292,-1.389323 0,-0.164714 0.0215,-0.358073 0.0215,-0.200521 0.0645,-0.436849 l 0.85221,-4.354167 h -1.11719 l 0.20769,-1.024088 h 1.0957 l 0.44401,-2.277344 h 1.31771 l -0.43685,2.277344 z"
       style="font-style:italic;font-variant:normal;font-weight:normal;font-stretch:normal;font-size:14.66666698px;font-family:sans-serif;-inkscape-font-specification:'sans-serif Italic';fill:#6c6753"
       id="path93" />
    <path
       d="m 490.95516,21.624428 0.93816,-4.841146 h 1.32487 l -0.93816,4.791016 q -0.0716,0.350911 -0.10742,0.601562 -0.0286,0.250651 -0.0286,0.415365 0,0.608724 0.37239,0.945312 0.3724,0.329427 1.05274,0.329427 1.05989,0 1.83333,-0.716146 0.77344,-0.716145 1.00977,-1.926432 l 0.88086,-4.440104 h 1.3177 l -1.55403,8.020833 h -1.31771 l 0.26497,-1.260416 q -0.55859,0.701823 -1.33203,1.088541 -0.76627,0.379558 -1.63281,0.379558 -1.05274,0 -1.63997,-0.572917 -0.58724,-0.580078 -0.58724,-1.611328 0,-0.214844 0.0358,-0.53711 0.0358,-0.322265 0.10742,-0.666015 z"
       style="font-style:italic;font-variant:normal;font-weight:normal;font-stretch:normal;font-size:14.66666698px;font-family:sans-serif;-inkscape-font-specification:'sans-serif Italic';fill:#6c6753"
       id="path95" />
    <path
       d="m 505.82236,18.00073 q -0.20052,-0.107422 -0.45833,-0.164714 -0.25781,-0.05729 -0.55143,-0.05729 -1.05274,0 -1.8405,0.802083 -0.78776,0.794922 -1.04557,2.134114 l -0.80925,4.089193 h -1.3177 l 1.56836,-8.020833 h 1.3177 l -0.25065,1.246094 q 0.52279,-0.694662 1.2461,-1.067058 0.73047,-0.372396 1.55403,-0.372396 0.21485,0 0.42253,0.02865 0.20768,0.02149 0.41536,0.07878 z"
       style="font-style:italic;font-variant:normal;font-weight:normal;font-stretch:normal;font-size:14.66666698px;font-family:sans-serif;-inkscape-font-specification:'sans-serif Italic';fill:#6c6753"
       id="path97" />
    <path
       d="m 512.38225,20.077553 q 0.0215,-0.114584 0.0286,-0.236328 0.0143,-0.121745 0.0143,-0.24349 0,-0.873698 -0.51562,-1.382162 -0.50847,-0.508463 -1.38933,-0.508463 -0.98112,0 -1.73307,0.623047 -0.75195,0.615885 -1.13867,1.754557 z m 1.14584,1.03125 h -6.13021 q -0.043,0.272135 -0.0573,0.429687 -0.0143,0.157552 -0.0143,0.272136 0,0.995442 0.60873,1.539713 0.61588,0.544271 1.73307,0.544271 0.85938,0 1.62565,-0.193359 0.76628,-0.19336 1.42513,-0.565756 l -0.25065,1.303386 q -0.70898,0.286458 -1.4681,0.429687 -0.75195,0.14323 -1.53255,0.14323 -1.66862,0 -2.57096,-0.794922 -0.89519,-0.802084 -0.89519,-2.270183 0,-1.253255 0.44401,-2.327474 0.45118,-1.08138 1.31771,-1.926432 0.5586,-0.529948 1.32487,-0.816406 0.77344,-0.286459 1.63998,-0.286459 1.36067,0 2.16276,0.816407 0.80924,0.816406 0.80924,2.191406 0,0.329427 -0.043,0.708984 -0.043,0.372396 -0.1289,0.802084 z"
       style="font-style:italic;font-variant:normal;font-weight:normal;font-stretch:normal;font-size:14.66666698px;font-family:sans-serif;-inkscape-font-specification:'sans-serif Italic';fill:#6c6753"
       id="path99" />
  </g>
</svg>
