<svg id="Layer_1" xmlns="http://www.w3.org/2000/svg" viewBox="0 0 800 1096.5"><style>.st0{fill:none;stroke:#414141;stroke-width:4;stroke-linejoin:round;stroke-miterlimit:10;} .st1{fill:#FFFFFF;stroke:#414141;stroke-width:4;stroke-linejoin:round;stroke-miterlimit:10;} .st2{fill:#A58BC0;stroke:#414141;stroke-width:4;stroke-linecap:round;stroke-linejoin:round;stroke-miterlimit:10;} .st3{fill:none;stroke:#414141;stroke-width:4;stroke-linecap:round;stroke-linejoin:round;stroke-miterlimit:10;} .st4{fill:#000100;} .st5{fill:none;stroke:#414141;stroke-width:4;stroke-linecap:round;stroke-linejoin:round;} .st6{fill:none;stroke:#414141;stroke-width:4;stroke-linecap:round;stroke-linejoin:round;stroke-dasharray:5.773,9.6216;} .st7{fill:none;stroke:#414141;stroke-width:4;stroke-linecap:round;stroke-linejoin:round;stroke-dasharray:6.4378,10.7297;} .st8{fill:none;stroke:#414141;stroke-width:4;stroke-linecap:round;stroke-linejoin:round;stroke-dasharray:6.017,10.0283;} .st9{fill:none;stroke:#414141;stroke-width:4;stroke-linecap:round;stroke-linejoin:round;stroke-dasharray:6.1571,10.2619;} .st10{fill:#FFFFFF;} .st11{fill:none;stroke:#414141;stroke-width:4;stroke-linecap:round;stroke-linejoin:round;stroke-dasharray:6.3663,10.6105;} .st12{fill:none;stroke:#414141;stroke-width:4;stroke-linecap:round;stroke-linejoin:round;stroke-dasharray:6.9923,11.6539;} .st13{fill:none;stroke:#414141;stroke-width:4;stroke-linecap:round;stroke-linejoin:round;stroke-dasharray:6.7154,11.1923;} .st14{fill:#979797;} .st15{fill:#B5E0F7;stroke:#414141;stroke-width:4;stroke-linecap:round;stroke-linejoin:round;stroke-miterlimit:10;} .st16{fill:#B18BE8;stroke:#404040;stroke-width:4;stroke-miterlimit:10;} .st17{fill:none;stroke:#404040;stroke-width:4;stroke-linecap:round;stroke-linejoin:round;stroke-miterlimit:10;} .st18{fill:#FC8363;stroke:#404040;stroke-width:4;stroke-miterlimit:10;} .st19{fill:none;stroke:#414141;stroke-width:4;stroke-linecap:round;stroke-linejoin:round;stroke-dasharray:6.0329,10.0548;} .st20{fill:none;stroke:#414141;stroke-width:4;stroke-linecap:round;stroke-linejoin:round;stroke-dasharray:5.9778,9.963;} .st21{fill:#B18BE8;stroke:#404040;stroke-width:4;stroke-linejoin:round;stroke-miterlimit:10;} .st22{fill:#FC8363;stroke:#404040;stroke-width:4;stroke-linejoin:round;stroke-miterlimit:10;} .st23{fill:#B5E0F7;stroke:#404040;stroke-width:4;stroke-linejoin:round;stroke-miterlimit:10;} .st24{fill:none;stroke:#404040;stroke-width:4;stroke-linecap:round;stroke-linejoin:round;} .st25{fill:#B5E0F7;stroke:#404040;stroke-width:4;stroke-linecap:round;stroke-linejoin:round;stroke-miterlimit:10;} .st26{fill:none;stroke:#414141;stroke-width:4;stroke-linecap:round;stroke-linejoin:round;stroke-miterlimit:10;stroke-dasharray:6,10;} .st27{font-family:&apos;CircularPro-Book&apos;;} .st28{font-size:15px;} .st29{fill:none;stroke:#414141;stroke-width:4;stroke-linecap:round;stroke-linejoin:round;stroke-dasharray:6.1001,10.1669;} .st30{fill:none;stroke:#414141;stroke-width:4;stroke-linecap:round;stroke-linejoin:round;stroke-dasharray:5.9247,9.8746;} .st31{fill:#59ABDD;stroke:#404040;stroke-width:4;stroke-linejoin:round;stroke-miterlimit:10;} .st32{fill:#61C19B;stroke:#404040;stroke-width:4;stroke-linejoin:round;stroke-miterlimit:10;} .st33{fill:#61C19B;stroke:#404040;stroke-width:4;stroke-linecap:round;stroke-linejoin:round;stroke-miterlimit:10;} .st34{fill:none;stroke:#414141;stroke-width:4;stroke-linecap:round;stroke-linejoin:round;stroke-dasharray:5.977,9.9616;} .st35{fill:#DADFE2;stroke:#404040;stroke-width:4;stroke-linejoin:round;stroke-miterlimit:10;} .st36{fill:none;stroke:#404040;stroke-width:4;stroke-linejoin:round;stroke-miterlimit:10;}</style><path class="st26" d="M30 51.2H770V370H30z"/><path class="st1" d="M256.5 218.7L171.3 218.7 171.3 106.4 240.5 106.4 240.5 121.9 256.5 121.9z"/><path class="st15" d="M240.5,106.4l16,15.5l-16,0V106.4z"/><path class="st21" d="M212 133.1H277.1V148.4H212z"/><path class="st22" d="M203.5 159.7H268.6V175H203.5z"/><path class="st21" d="M212 186.3H277.1V201.60000000000002H212z"/><text transform="translate(183.608 260)"><tspan x="0" y="0" class="st4 st27 st28">Untracked </tspan><tspan x="23.3" y="18" class="st4 st27 st28">Files</tspan></text><path class="st1" d="M432.3 218.7L347.1 218.7 347.1 106.4 416.3 106.4 416.3 121.9 432.3 121.9z"/><path class="st15" d="M416.3,106.4l16,15.5l-16,0V106.4z"/><path class="st21" d="M387.8 133.1H452.9V148.4H387.8z"/><path class="st22" d="M379.3 159.7H444.4V175H379.3z"/><path class="st21" d="M387.8 186.3H452.9V201.60000000000002H387.8z"/><text transform="translate(371.208 260)"><tspan x="0" y="0" class="st4 st27 st28">Ignored</tspan><tspan x="11.5" y="18" class="st4 st27 st28">Files</tspan></text><text transform="translate(671.237 340)" class="st4 st27 st28">Worktree</text><path class="st5" d="M770 567.5L770 570.5 767 570.5"/><path class="st19" d="M756.9 570.5L38 570.5"/><path class="st5" d="M33 570.5L30 570.5 30 567.5"/><path class="st29" d="M30 557.3L30 399.7"/><path class="st5" d="M30 394.6L30 391.6 33 391.6"/><path class="st19" d="M43.1 391.6L762 391.6"/><path class="st5" d="M767 391.6L770 391.6 770 394.6"/><path class="st29" d="M770 404.8L770 562.4"/><text transform="translate(685.944 540.472)" class="st4 st27 st28">Index</text><text transform="translate(376.682 487.255)" class="st4 st27 st28">Empty</text><path class="st5" d="M770 1043L770 1046 767 1046"/><path class="st19" d="M756.9 1046L38 1046"/><path class="st5" d="M33 1046L30 1046 30 1043"/><path class="st30" d="M30 1033.1L30 595.7"/><path class="st5" d="M30 590.7L30 587.7 33 587.7"/><path class="st19" d="M43.1 587.7L762 587.7"/><path class="st5" d="M767 587.7L770 587.7 770 590.7"/><path class="st30" d="M770 600.6L770 1038.1"/><text transform="translate(666.182 1018.933)" class="st4 st27 st28">Repository</text><circle class="st23" cx="400.3" cy="979.5" r="30"/><path class="st24" d="M399.6,1046v-36.5"/><path class="st25" d="M179.1,954.5h94v50h-94V954.5z"/><text transform="translate(205.486 985.716)" class="st4 st27 st28">HEAD</text><path class="st24" d="M336.5,979.5h-43.3"/><path class="st24" d="M330.5,988.2l8.7-8.7l-8.7-8.7"/><path class="st24" d="M400,926.8v-63.3"/><path class="st24" d="M391.3,920.8l8.7,8.7l8.7-8.7"/><circle class="st31" cx="400.3" cy="813.5" r="30"/><path class="st24" d="M400,760.8v-63.3"/><path class="st24" d="M391.3,754.8l8.7,8.7l8.7-8.7"/><circle class="st32" cx="400.3" cy="647.5" r="30"/><path class="st33" d="M139.1,621.6h134v50h-134V621.6z"/><text transform="translate(164.642 652.832)" class="st4 st27 st28">refs / stash</text><path class="st24" d="M336.5,646.6l-43.3,0"/><path class="st24" d="M330.5,655.3l8.7-8.7l-8.7-8.7"/><path class="st24" d="M365.9,683.9c-83.1,96.5-81.3,165.6-0.2,259.4"/><path class="st24" d="M353.7,943.3l12.3,0V931"/><text transform="translate(451.67 652.83)" class="st4 st27 st28">Tracked files</text><text transform="translate(451.67 652.83)" class="st4 st27 st28">Tracked files</text><text transform="translate(449.09 818.97)" class="st4 st27 st28">Index</text><text transform="translate(368.65 21.874)" class="st14 st27 st28">git stash</text></svg>